<svg xmlns="http://www.w3.org/2000/svg" width="84" height="84" viewBox="0 0 84 84" fill="none"><g clip-path="url(#clip0_1019_80)"><path d="M42.0731 82.9996C18.8713 82.9996 0 64.3798 0 41.4996C0 40.1814 0.0688313 38.8348 0.200758 37.4826L0.321213 36.2266H1.60033C27.8021 36.3171 50.8491 53.794 57.6577 78.7223L57.9904 79.9388L56.7916 80.3801C52.0824 82.117 47.1265 82.9996 42.0731 82.9996ZM2.89092 39.0215C2.83356 39.8532 2.81061 40.6849 2.81061 41.4996C2.81061 62.8522 20.4257 80.2273 42.0731 80.2273C46.3579 80.2273 50.5623 79.5484 54.589 78.2131C47.8263 55.548 26.8557 39.6552 2.89092 39.0215Z" fill="#646D96"></path><path d="M42.0731 82.9996C37.0198 82.9996 32.0639 82.117 27.3547 80.3801L26.1559 79.9388L26.4886 78.7223C33.2914 53.7884 56.3442 36.3171 82.546 36.2266H83.8251L83.9455 37.4826C84.0774 38.8405 84.1463 40.1927 84.1463 41.4996C84.1463 64.3798 65.275 82.9996 42.0731 82.9996ZM29.5516 78.2131C33.5839 79.554 37.7884 80.2273 42.0731 80.2273C63.7206 80.2273 81.3357 62.8522 81.3357 41.4996C81.3357 40.6906 81.307 39.8589 81.2554 39.0215C57.2906 39.6552 36.32 55.548 29.5573 78.2131H29.5516Z" fill="#646D96"></path><path d="M4.28473 31.0387C9.01688 14.3652 24.4236 2.77232 42.0731 2.77232C59.7226 2.77232 74.8139 14.1502 79.7124 30.5295C80.6302 30.3824 81.5651 30.241 82.523 30.1165C77.3951 12.3623 60.8526 0 42.0731 0C23.2936 0 6.38409 12.6056 1.45691 30.6993C2.21979 30.7728 3.17196 30.886 4.28473 31.0444V31.0387Z" fill="#2D7574"></path><path d="M42.01 26.9307C35.0351 26.9307 29.1156 31.423 27.0392 37.6296C27.8881 38.0086 28.737 38.416 29.5974 38.8403C31.192 33.5616 36.1479 29.703 42.01 29.703C47.8721 29.703 52.5297 33.341 54.2677 38.3821C55.0765 37.9804 55.9197 37.5787 56.8087 37.1826C54.6004 31.2136 48.8071 26.9363 42.01 26.9363V26.9307Z" fill="#2D7574"></path><path d="M42.01 17.624C31.0716 17.624 21.7851 24.6397 18.4755 34.3428C19.3416 34.6257 20.2307 34.9256 21.1255 35.2481C24.0508 26.6312 32.2991 20.3963 42.0043 20.3963C51.7095 20.3963 59.6653 26.4219 62.7225 34.8124C63.5772 34.5069 64.4663 34.2071 65.3783 33.9185C61.9424 24.4417 52.7764 17.6297 42.0043 17.6297L42.01 17.624Z" fill="#2D7574"></path><path d="M42.0101 8.54297C26.8729 8.54297 14.0416 18.4441 9.80847 32.0229C10.6861 32.2096 11.5981 32.4189 12.5503 32.6565C16.4851 20.3055 28.2036 11.3153 42.0043 11.3153C55.805 11.3153 67.2482 20.0962 71.315 32.2322C72.2098 32.0115 73.1275 31.7965 74.0625 31.5929C69.6975 18.2348 56.9809 8.54297 42.0043 8.54297H42.0101Z" fill="#2D7574"></path><path d="M113.727 13.4146H110.526C110.434 12.8941 110.268 12.4358 110.021 12.0341C109.774 11.6324 109.47 11.2872 109.103 11.01C108.736 10.7271 108.323 10.5178 107.859 10.3707C107.394 10.2292 106.889 10.1557 106.356 10.1557C105.404 10.1557 104.555 10.3933 103.821 10.8629C103.086 11.3325 102.507 12.0228 102.088 12.9223C101.67 13.8219 101.463 14.9309 101.463 16.2322C101.463 17.5335 101.675 18.6707 102.094 19.5759C102.513 20.4812 103.092 21.1601 103.826 21.6184C104.561 22.0767 105.398 22.3086 106.35 22.3086C106.878 22.3086 107.365 22.2408 107.83 22.0993C108.289 21.9635 108.702 21.7598 109.075 21.4883C109.442 21.2167 109.752 20.8885 110.01 20.4925C110.268 20.0964 110.44 19.6495 110.537 19.1403L113.738 19.1572C113.618 19.9776 113.359 20.7527 112.964 21.4713C112.568 22.1898 112.046 22.8292 111.409 23.378C110.773 23.9268 110.021 24.3568 109.166 24.6623C108.312 24.9678 107.36 25.1206 106.316 25.1206C104.773 25.1206 103.396 24.7698 102.186 24.0626C100.976 23.3553 100.023 22.3426 99.3236 21.013C98.6296 19.6834 98.2797 18.0879 98.2797 16.2322C98.2797 14.3764 98.6296 12.7752 99.3351 11.4457C100.035 10.1217 100.993 9.10333 102.203 8.40176C103.413 7.70019 104.784 7.34375 106.316 7.34375C107.291 7.34375 108.197 7.47954 109.04 7.75111C109.878 8.02269 110.629 8.41873 111.283 8.93925C111.937 9.45977 112.482 10.0991 112.906 10.8459C113.331 11.5928 113.612 12.4527 113.744 13.4202L113.727 13.4146Z" fill="#373F5A"></path><path d="M122.852 25.1319C121.568 25.1319 120.455 24.8546 119.514 24.2945C118.573 23.7344 117.845 22.9593 117.329 21.9522C116.812 20.9507 116.554 19.7796 116.554 18.4387C116.554 17.0978 116.812 15.9266 117.329 14.9139C117.845 13.9068 118.573 13.1203 119.514 12.5659C120.455 12.0057 121.568 11.7285 122.852 11.7285C124.137 11.7285 125.25 12.0057 126.191 12.5659C127.131 13.126 127.86 13.9068 128.376 14.9139C128.892 15.9209 129.15 17.0978 129.15 18.4387C129.15 19.7796 128.892 20.9507 128.376 21.9522C127.86 22.9536 127.131 23.7344 126.191 24.2945C125.25 24.8546 124.137 25.1319 122.852 25.1319ZM122.87 22.682C123.564 22.682 124.149 22.4897 124.619 22.1106C125.089 21.7315 125.439 21.2167 125.669 20.5773C125.898 19.938 126.013 19.2195 126.013 18.433C126.013 17.6466 125.898 16.9224 125.669 16.2774C125.439 15.6324 125.089 15.1175 124.619 14.7385C124.149 14.3537 123.569 14.1614 122.87 14.1614C122.17 14.1614 121.562 14.3537 121.091 14.7385C120.621 15.1232 120.271 15.6381 120.036 16.2774C119.807 16.9224 119.692 17.6409 119.692 18.433C119.692 19.2251 119.807 19.938 120.036 20.5773C120.265 21.2167 120.621 21.7315 121.091 22.1106C121.562 22.4897 122.153 22.682 122.87 22.682Z" fill="#373F5A"></path><path d="M135.477 17.2736V24.8777H132.374V11.9043H135.34V14.1109H135.494C135.798 13.3867 136.28 12.8096 136.946 12.3796C137.611 11.9496 138.437 11.7402 139.418 11.7402C140.324 11.7402 141.116 11.9326 141.792 12.3173C142.469 12.7021 142.991 13.2565 143.37 13.9807C143.748 14.7049 143.926 15.5875 143.92 16.6229V24.8833H140.823V17.0925C140.823 16.2269 140.594 15.5479 140.14 15.0557C139.687 14.5635 139.062 14.3202 138.259 14.3202C137.714 14.3202 137.238 14.439 136.814 14.671C136.395 14.9029 136.068 15.2424 135.827 15.6781C135.592 16.1194 135.471 16.6512 135.471 17.2736H135.477Z" fill="#373F5A"></path><path d="M158.083 15.3329L155.255 15.6385C155.174 15.3556 155.037 15.0897 154.842 14.8464C154.647 14.5974 154.383 14.3994 154.05 14.2466C153.718 14.0939 153.316 14.0203 152.834 14.0203C152.192 14.0203 151.647 14.1561 151.211 14.4333C150.775 14.7106 150.557 15.067 150.563 15.5083C150.563 15.8874 150.7 16.1929 150.987 16.4306C151.274 16.6682 151.756 16.8605 152.421 17.0133L154.664 17.4886C155.909 17.7545 156.838 18.1732 157.44 18.7446C158.048 19.3217 158.358 20.0685 158.364 21.0021C158.364 21.8168 158.117 22.541 157.641 23.1577C157.165 23.78 156.505 24.2666 155.656 24.6174C154.813 24.9682 153.838 25.1436 152.742 25.1436C151.131 25.1436 149.834 24.8098 148.853 24.1421C147.873 23.4745 147.288 22.5466 147.098 21.3528L150.121 21.0643C150.259 21.6527 150.551 22.094 150.993 22.3882C151.44 22.6881 152.02 22.8352 152.731 22.8352C153.442 22.8352 154.062 22.6881 154.509 22.3882C154.957 22.0884 155.18 21.7206 155.18 21.2793C155.18 20.9059 155.037 20.6004 154.75 20.3571C154.463 20.1138 154.016 19.9271 153.408 19.797L151.165 19.333C149.903 19.0727 148.968 18.6371 148.366 18.0204C147.758 17.4037 147.46 16.6229 147.465 15.6781C147.46 14.8803 147.683 14.1844 148.131 13.596C148.578 13.0076 149.203 12.5493 150.006 12.2268C150.809 11.9043 151.733 11.7402 152.783 11.7402C154.326 11.7402 155.536 12.0627 156.425 12.7134C157.314 13.364 157.865 14.2353 158.071 15.3386L158.083 15.3329Z" fill="#373F5A"></path><path d="M167.266 25.1319C165.981 25.1319 164.868 24.8546 163.928 24.2945C162.987 23.7344 162.258 22.9593 161.736 21.9522C161.22 20.9507 160.962 19.7796 160.962 18.4387C160.962 17.0978 161.22 15.9266 161.736 14.9139C162.253 13.9068 162.981 13.1203 163.928 12.5659C164.868 12.0057 165.981 11.7285 167.266 11.7285C168.551 11.7285 169.663 12.0057 170.604 12.5659C171.545 13.126 172.273 13.9068 172.79 14.9139C173.306 15.9209 173.564 17.0978 173.564 18.4387C173.564 19.7796 173.306 20.9507 172.79 21.9522C172.273 22.9536 171.545 23.7344 170.604 24.2945C169.663 24.8546 168.551 25.1319 167.266 25.1319ZM167.283 22.682C167.977 22.682 168.562 22.4897 169.033 22.1106C169.503 21.7315 169.853 21.2167 170.082 20.5773C170.312 19.938 170.426 19.2195 170.426 18.433C170.426 17.6466 170.312 16.9224 170.082 16.2774C169.853 15.6324 169.503 15.1175 169.033 14.7385C168.562 14.3537 167.983 14.1614 167.283 14.1614C166.583 14.1614 165.975 14.3537 165.505 14.7385C165.035 15.1232 164.685 15.6381 164.449 16.2774C164.22 16.9224 164.105 17.6409 164.105 18.433C164.105 19.2251 164.22 19.938 164.449 20.5773C164.679 21.2167 165.035 21.7315 165.505 22.1106C165.975 22.4897 166.566 22.682 167.283 22.682Z" fill="#373F5A"></path><path d="M176.793 24.8769V11.9035H179.799V14.0648H179.937C180.177 13.318 180.59 12.7352 181.175 12.3278C181.761 11.9205 182.432 11.7168 183.183 11.7168C183.355 11.7168 183.544 11.7225 183.762 11.7394C183.975 11.7507 184.152 11.7734 184.296 11.8017V14.6136C184.164 14.5683 183.957 14.5287 183.676 14.4891C183.395 14.4552 183.12 14.4325 182.856 14.4325C182.288 14.4325 181.783 14.5514 181.336 14.789C180.889 15.0266 180.533 15.3604 180.281 15.7791C180.023 16.2034 179.896 16.69 179.896 17.2388V24.8655H176.799L176.793 24.8769Z" fill="#373F5A"></path><path d="M194.242 11.9038V14.2687H186.682V11.9038H194.242ZM188.546 8.79765H191.649V20.9789C191.649 21.3919 191.712 21.7031 191.844 21.9181C191.971 22.1331 192.143 22.2859 192.355 22.3594C192.567 22.4386 192.802 22.4782 193.055 22.4782C193.25 22.4782 193.427 22.4669 193.588 22.4386C193.749 22.4103 193.875 22.3877 193.961 22.3651L194.483 24.7583C194.317 24.8149 194.081 24.8771 193.777 24.945C193.473 25.0129 193.101 25.0525 192.659 25.0638C191.885 25.0865 191.185 24.9677 190.56 24.7131C189.94 24.4585 189.447 24.0567 189.08 23.5193C188.718 22.9761 188.54 22.3028 188.546 21.4938V8.79199V8.79765Z" fill="#373F5A"></path><path d="M198.997 10.0594C198.504 10.0594 198.085 9.89534 197.729 9.57284C197.374 9.25035 197.196 8.85996 197.196 8.40168C197.196 7.94339 197.374 7.54735 197.729 7.22485C198.085 6.90236 198.504 6.73828 198.997 6.73828C199.49 6.73828 199.921 6.90236 200.271 7.22485C200.62 7.54735 200.798 7.94339 200.798 8.40168C200.798 8.85996 200.62 9.25035 200.271 9.57284C199.921 9.89534 199.496 10.0594 198.997 10.0594ZM197.437 24.8772V11.9039H200.534V24.8772H197.437Z" fill="#373F5A"></path><path d="M212.712 19.4175V11.8982H215.809V24.8716H212.804V22.5632H212.666C212.368 23.2874 211.88 23.8815 211.203 24.3454C210.526 24.8093 209.695 25.0357 208.708 25.0357C207.848 25.0357 207.085 24.8433 206.425 24.4642C205.766 24.0851 205.249 23.5307 204.882 22.8008C204.509 22.071 204.326 21.1884 204.326 20.153V11.8926H207.423V19.6834C207.423 20.5038 207.653 21.1601 208.106 21.641C208.565 22.1275 209.161 22.3652 209.907 22.3652C210.366 22.3652 210.807 22.2577 211.232 22.037C211.662 21.8164 212.012 21.4882 212.287 21.0526C212.563 20.6169 212.7 20.0681 212.7 19.4118L212.712 19.4175Z" fill="#373F5A"></path><path d="M219.601 24.8777V11.9043H222.566V14.1109H222.721C222.996 13.3697 223.449 12.7869 224.08 12.3683C224.711 11.9496 225.468 11.7402 226.352 11.7402C227.235 11.7402 227.992 11.9552 228.606 12.3796C229.22 12.8039 229.65 13.381 229.902 14.1165H230.04C230.333 13.398 230.826 12.8209 231.52 12.3909C232.214 11.9609 233.04 11.7459 233.992 11.7459C235.202 11.7459 236.189 12.125 236.958 12.8775C237.72 13.6299 238.105 14.7332 238.105 16.1816V24.889H234.996V16.6512C234.996 15.8478 234.778 15.2537 234.348 14.8803C233.912 14.5069 233.384 14.3202 232.753 14.3202C232.007 14.3202 231.422 14.5522 231.004 15.0104C230.585 15.4687 230.373 16.0628 230.373 16.7983V24.889H227.333V16.5267C227.333 15.8591 227.126 15.3216 226.719 14.9199C226.312 14.5182 225.778 14.3202 225.124 14.3202C224.677 14.3202 224.275 14.4333 223.908 14.654C223.541 14.8747 223.254 15.1915 223.036 15.5932C222.818 15.9949 222.709 16.4645 222.709 17.002V24.8946H219.612L219.601 24.8777Z" fill="#373F5A"></path><path d="M254.429 7.64875V10.3419C254.24 10.3192 253.924 10.3023 253.483 10.2909C253.041 10.2796 252.731 10.3758 252.565 10.5795C252.399 10.7832 252.313 11.0095 252.313 11.2584V12.3278H254.515V14.6644H252.313V24.8768H248.969V14.6644H247.099V12.3278H248.934V11.513C248.934 10.1552 249.164 9.22727 249.628 8.71241C250.116 7.95427 251.286 7.5752 253.15 7.5752C253.362 7.5752 253.557 7.58085 253.729 7.59217C253.901 7.60348 254.137 7.62046 254.435 7.64309L254.429 7.64875Z" fill="#373F5A"></path><path d="M267.754 13.8161C268.838 15.157 269.377 16.7412 269.377 18.5687C269.377 20.3962 268.838 22.0143 267.754 23.3382C266.67 24.6622 265.023 25.3185 262.821 25.3185C260.618 25.3185 258.972 24.6565 257.888 23.3382C256.804 22.02 256.265 20.4301 256.265 18.5687C256.265 16.7073 256.804 15.157 257.888 13.8161C258.972 12.4752 260.613 11.8076 262.821 11.8076C265.029 11.8076 266.67 12.4752 267.754 13.8161ZM262.809 14.6082C261.829 14.6082 261.071 14.9534 260.544 15.638C260.016 16.3225 259.746 17.3013 259.746 18.5687C259.746 19.836 260.01 20.8205 260.544 21.5051C261.071 22.1953 261.829 22.5405 262.809 22.5405C263.79 22.5405 264.542 22.1953 265.069 21.5051C265.597 20.8148 265.861 19.836 265.861 18.5687C265.861 17.3013 265.597 16.3225 265.069 15.638C264.542 14.9534 263.79 14.6082 262.809 14.6082Z" fill="#373F5A"></path><path d="M278.836 15.2699C277.488 15.2699 276.581 15.7056 276.117 16.5712C275.859 17.0578 275.727 17.8103 275.727 18.823V24.8769H272.348V12.2147H275.549V14.4212C276.065 13.5782 276.518 13.0011 276.903 12.69C277.528 12.1694 278.348 11.9092 279.352 11.9092C279.415 11.9092 279.467 11.9092 279.512 11.9148C279.558 11.9148 279.65 11.9262 279.799 11.9318V15.3208C279.587 15.2982 279.398 15.2812 279.231 15.2756C279.065 15.2699 278.933 15.2643 278.83 15.2643L278.836 15.2699Z" fill="#373F5A"></path><path d="M100.964 50.1336H97.5741L103.746 32.832H107.669L113.853 50.1336H110.463L105.776 36.3795H105.639L100.964 50.1336ZM101.073 43.3499H110.319V45.8676H101.073V43.3499Z" fill="#373F5A"></path><path d="M121.94 55.271C120.828 55.271 119.87 55.1239 119.072 54.8297C118.275 54.5355 117.633 54.1394 117.145 53.6416C116.658 53.1437 116.325 52.5949 116.136 51.9951L118.929 51.3275C119.055 51.5821 119.239 51.8311 119.48 52.0857C119.721 52.3403 120.042 52.5439 120.449 52.708C120.856 52.8721 121.373 52.957 121.992 52.957C122.87 52.957 123.598 52.7476 124.177 52.3289C124.757 51.9103 125.044 51.22 125.044 50.2638V47.8084H124.889C124.728 48.1252 124.499 48.4477 124.189 48.7815C123.885 49.1153 123.483 49.3925 122.984 49.6189C122.485 49.8452 121.86 49.9583 121.103 49.9583C120.093 49.9583 119.176 49.7207 118.355 49.2511C117.535 48.7815 116.887 48.0743 116.405 47.1407C115.923 46.2015 115.682 45.0247 115.682 43.6159C115.682 42.2071 115.923 40.985 116.405 40.0062C116.887 39.0218 117.541 38.275 118.361 37.7658C119.181 37.2566 120.099 37.002 121.109 37.002C121.877 37.002 122.514 37.1321 123.013 37.3867C123.512 37.6413 123.908 37.9525 124.206 38.3089C124.504 38.6653 124.728 39.0048 124.883 39.316H125.055V37.1717H128.112V50.36C128.112 51.469 127.843 52.3855 127.309 53.1154C126.77 53.8396 126.042 54.3884 125.107 54.7448C124.172 55.1013 123.122 55.288 121.94 55.288V55.271ZM121.963 47.5481C122.617 47.5481 123.179 47.3897 123.644 47.0728C124.109 46.756 124.458 46.3034 124.699 45.715C124.94 45.1266 125.061 44.4137 125.061 43.5876C125.061 42.7616 124.94 42.0544 124.705 41.4433C124.47 40.8323 124.12 40.3514 123.661 40.0119C123.202 39.6724 122.64 39.5027 121.969 39.5027C121.298 39.5027 120.701 39.6781 120.237 40.0345C119.772 40.391 119.428 40.8775 119.193 41.4942C118.958 42.1109 118.843 42.8125 118.843 43.5933C118.843 44.3741 118.963 45.0813 119.199 45.6754C119.434 46.2694 119.789 46.7334 120.254 47.0615C120.719 47.3897 121.292 47.5538 121.969 47.5538L121.963 47.5481Z" fill="#373F5A"></path><path d="M131.904 50.1337V37.1603H134.909V39.3216H135.047C135.288 38.5748 135.701 37.992 136.286 37.5847C136.871 37.1773 137.542 36.9736 138.294 36.9736C138.466 36.9736 138.655 36.9793 138.873 36.9963C139.085 37.0076 139.263 37.0302 139.406 37.0585V39.8704C139.274 39.8252 139.068 39.7856 138.787 39.746C138.506 39.712 138.23 39.6894 137.967 39.6894C137.404 39.6894 136.894 39.8082 136.447 40.0458C135.999 40.2834 135.644 40.6173 135.391 41.0359C135.133 41.4603 135.007 41.9468 135.007 42.4957V50.1224H131.904V50.1337Z" fill="#373F5A"></path><path d="M147.265 50.3887C145.98 50.3887 144.867 50.1115 143.926 49.5513C142.986 48.9912 142.257 48.2161 141.735 47.209C141.219 46.2076 140.961 45.0364 140.961 43.6955C140.961 42.3546 141.219 41.1834 141.735 40.1707C142.251 39.1636 142.98 38.3772 143.926 37.8227C144.867 37.2626 145.98 36.9854 147.265 36.9854C148.549 36.9854 149.662 37.2626 150.603 37.8227C151.544 38.3828 152.272 39.1636 152.788 40.1707C153.305 41.1778 153.563 42.3546 153.563 43.6955C153.563 45.0364 153.305 46.2076 152.788 47.209C152.272 48.2104 151.544 48.9912 150.603 49.5513C149.662 50.1115 148.549 50.3887 147.265 50.3887ZM147.282 47.9389C147.976 47.9389 148.561 47.7465 149.031 47.3674C149.502 46.9883 149.852 46.4735 150.081 45.8342C150.31 45.1948 150.425 44.4763 150.425 43.6898C150.425 42.9034 150.31 42.1736 150.081 41.5286C149.852 40.8836 149.502 40.3687 149.031 39.9896C148.561 39.6049 147.982 39.4126 147.282 39.4126C146.582 39.4126 145.974 39.6049 145.504 39.9896C145.033 40.3744 144.683 40.8892 144.448 41.5286C144.219 42.1736 144.104 42.8921 144.104 43.6898C144.104 44.4876 144.219 45.1948 144.448 45.8342C144.678 46.4735 145.033 46.9883 145.504 47.3674C145.974 47.7465 146.565 47.9389 147.282 47.9389Z" fill="#373F5A"></path><path d="M162.614 50.3879C161.295 50.3879 160.159 50.1163 159.201 49.5732C158.243 49.03 157.509 48.2606 156.998 47.2592C156.482 46.2577 156.23 45.0809 156.23 43.723C156.23 42.3651 156.488 41.2166 157.004 40.2039C157.52 39.1911 158.243 38.4047 159.178 37.8389C160.113 37.2731 161.203 36.9902 162.459 36.9902C163.268 36.9902 164.036 37.1204 164.759 37.375C165.482 37.6296 166.119 38.0256 166.675 38.5631C167.231 39.1006 167.667 39.7795 167.989 40.6056C168.31 41.4316 168.47 42.4104 168.47 43.5476V44.4868H157.687V42.4274H165.499C165.499 41.8446 165.367 41.3185 165.115 40.8602C164.862 40.4019 164.513 40.0398 164.065 39.7739C163.618 39.508 163.096 39.3778 162.505 39.3778C161.874 39.3778 161.312 39.5306 160.836 39.8305C160.36 40.1303 159.981 40.5264 159.717 41.0129C159.453 41.4995 159.316 42.0313 159.31 42.6141V44.4133C159.31 45.1658 159.448 45.8164 159.729 46.3539C160.01 46.8914 160.4 47.3044 160.899 47.5873C161.404 47.8702 161.989 48.0116 162.666 48.0116C163.119 48.0116 163.526 47.9494 163.887 47.8193C164.254 47.6948 164.57 47.5081 164.84 47.2592C165.109 47.0102 165.31 46.7047 165.448 46.3369L168.344 46.6594C168.161 47.4119 167.816 48.0739 167.306 48.634C166.795 49.1941 166.142 49.6298 165.35 49.9353C164.558 50.2408 163.646 50.3936 162.625 50.3936L162.614 50.3879Z" fill="#373F5A"></path><path d="M177.424 50.3881C176.111 50.3881 174.986 50.1052 174.046 49.5338C173.105 48.968 172.382 48.1759 171.878 47.1745C171.373 46.1674 171.12 45.0132 171.12 43.7006C171.12 42.388 171.378 41.2168 171.889 40.2097C172.405 39.197 173.128 38.4105 174.069 37.8448C175.009 37.279 176.122 36.9961 177.407 36.9961C178.474 36.9961 179.42 37.1885 180.246 37.5732C181.072 37.9579 181.726 38.5011 182.219 39.2026C182.713 39.9042 182.988 40.7246 183.057 41.6581H180.091C179.971 41.0358 179.69 40.5096 179.237 40.0909C178.784 39.6722 178.193 39.4629 177.441 39.4629C176.81 39.4629 176.248 39.6326 175.772 39.9664C175.29 40.3003 174.918 40.7812 174.654 41.4092C174.39 42.0315 174.258 42.784 174.258 43.6553C174.258 44.5266 174.39 45.2961 174.654 45.9298C174.918 46.5634 175.285 47.05 175.761 47.3895C176.237 47.729 176.799 47.8987 177.441 47.8987C177.9 47.8987 178.308 47.8138 178.669 47.6384C179.03 47.463 179.334 47.2197 179.581 46.8916C179.828 46.5634 179.994 46.1674 180.086 45.6978H183.051C182.977 46.6144 182.701 47.4291 182.231 48.1363C181.761 48.8435 181.112 49.3923 180.292 49.7941C179.478 50.1901 178.514 50.3881 177.413 50.3881H177.424Z" fill="#373F5A"></path><path d="M191.953 50.3887C190.668 50.3887 189.556 50.1115 188.615 49.5513C187.674 48.9912 186.946 48.2161 186.424 47.209C185.908 46.2076 185.65 45.0364 185.65 43.6955C185.65 42.3546 185.908 41.1834 186.424 40.1707C186.94 39.1636 187.669 38.3772 188.615 37.8227C189.556 37.2626 190.668 36.9854 191.953 36.9854C193.238 36.9854 194.351 37.2626 195.292 37.8227C196.232 38.3828 196.961 39.1636 197.477 40.1707C197.993 41.1778 198.251 42.3546 198.251 43.6955C198.251 45.0364 197.993 46.2076 197.477 47.209C196.961 48.2104 196.232 48.9912 195.292 49.5513C194.351 50.1115 193.238 50.3887 191.953 50.3887ZM191.971 47.9389C192.665 47.9389 193.25 47.7465 193.72 47.3674C194.19 46.9883 194.54 46.4735 194.77 45.8342C194.999 45.1948 195.114 44.4763 195.114 43.6898C195.114 42.9034 194.999 42.1736 194.77 41.5286C194.54 40.8836 194.19 40.3687 193.72 39.9896C193.25 39.6049 192.67 39.4126 191.971 39.4126C191.271 39.4126 190.663 39.6049 190.192 39.9896C189.722 40.3744 189.372 40.8892 189.137 41.5286C188.908 42.1736 188.793 42.8921 188.793 43.6898C188.793 44.4876 188.908 45.1948 189.137 45.8342C189.366 46.4735 189.722 46.9883 190.192 47.3674C190.663 47.7465 191.254 47.9389 191.971 47.9389Z" fill="#373F5A"></path><path d="M204.578 32.8379V50.1395H201.481V32.8379H204.578Z" fill="#373F5A"></path><path d="M214.106 50.3887C212.821 50.3887 211.708 50.1115 210.767 49.5513C209.827 48.9912 209.098 48.2161 208.576 47.209C208.06 46.2076 207.802 45.0364 207.802 43.6955C207.802 42.3546 208.06 41.1834 208.576 40.1707C209.092 39.1636 209.821 38.3772 210.767 37.8227C211.708 37.2626 212.821 36.9854 214.106 36.9854C215.39 36.9854 216.503 37.2626 217.444 37.8227C218.385 38.3828 219.113 39.1636 219.629 40.1707C220.146 41.1778 220.404 42.3546 220.404 43.6955C220.404 45.0364 220.146 46.2076 219.629 47.209C219.113 48.2104 218.385 48.9912 217.444 49.5513C216.503 50.1115 215.39 50.3887 214.106 50.3887ZM214.123 47.9389C214.817 47.9389 215.402 47.7465 215.872 47.3674C216.343 46.9883 216.692 46.4735 216.922 45.8342C217.151 45.1948 217.266 44.4763 217.266 43.6898C217.266 42.9034 217.151 42.1736 216.922 41.5286C216.692 40.8836 216.343 40.3687 215.872 39.9896C215.402 39.6049 214.823 39.4126 214.123 39.4126C213.423 39.4126 212.815 39.6049 212.345 39.9896C211.874 40.3744 211.524 40.8892 211.289 41.5286C211.06 42.1736 210.945 42.8921 210.945 43.6898C210.945 44.4876 211.06 45.1948 211.289 45.8342C211.519 46.4735 211.874 46.9883 212.345 47.3674C212.815 47.7465 213.406 47.9389 214.123 47.9389Z" fill="#373F5A"></path><path d="M229.357 55.271C228.245 55.271 227.287 55.1239 226.489 54.8297C225.692 54.5355 225.05 54.1394 224.562 53.6416C224.075 53.1437 223.742 52.5949 223.553 51.9951L226.346 51.3275C226.472 51.5821 226.656 51.8311 226.897 52.0857C227.138 52.3346 227.459 52.5439 227.866 52.708C228.273 52.8721 228.79 52.957 229.409 52.957C230.287 52.957 231.015 52.7476 231.594 52.3289C232.174 51.9103 232.461 51.22 232.461 50.2638V47.8084H232.306C232.145 48.1252 231.916 48.4477 231.606 48.7815C231.302 49.1153 230.9 49.3925 230.396 49.6189C229.897 49.8452 229.271 49.9583 228.514 49.9583C227.505 49.9583 226.587 49.7207 225.767 49.2511C224.946 48.7815 224.298 48.0743 223.816 47.1407C223.335 46.2015 223.094 45.0247 223.094 43.6159C223.094 42.2071 223.335 40.985 223.816 40.0062C224.298 39.0218 224.952 38.275 225.772 37.7658C226.593 37.2566 227.51 37.002 228.52 37.002C229.289 37.002 229.925 37.1321 230.424 37.3867C230.923 37.6413 231.325 37.9525 231.617 38.3089C231.916 38.6653 232.139 39.0048 232.294 39.316H232.466V37.1717H235.524V50.36C235.524 51.469 235.254 52.3855 234.721 53.1154C234.181 53.8396 233.453 54.3884 232.518 54.7448C231.589 55.1069 230.533 55.288 229.352 55.288L229.357 55.271ZM229.38 47.5481C230.034 47.5481 230.596 47.3897 231.061 47.0728C231.526 46.756 231.875 46.3034 232.116 45.715C232.357 45.1266 232.478 44.4137 232.478 43.5876C232.478 42.7616 232.357 42.0544 232.122 41.4433C231.887 40.8323 231.537 40.3514 231.078 40.0119C230.619 39.6724 230.057 39.5027 229.386 39.5027C228.715 39.5027 228.118 39.6781 227.654 40.0345C227.189 40.391 226.845 40.8775 226.61 41.4942C226.375 42.1109 226.26 42.8125 226.26 43.5933C226.26 44.3741 226.38 45.0813 226.616 45.6754C226.851 46.2694 227.201 46.7334 227.671 47.0615C228.141 47.3897 228.709 47.5538 229.386 47.5538L229.38 47.5481Z" fill="#373F5A"></path><path d="M240.875 35.3211C240.382 35.3211 239.963 35.1571 239.608 34.8346C239.252 34.5121 239.074 34.1217 239.074 33.6634C239.074 33.2051 239.252 32.8091 239.608 32.4866C239.963 32.1641 240.382 32 240.875 32C241.368 32 241.799 32.1641 242.149 32.4866C242.498 32.8091 242.676 33.2051 242.676 33.6634C242.676 34.1217 242.498 34.5121 242.149 34.8346C241.799 35.1571 241.374 35.3211 240.875 35.3211ZM239.315 50.1389V37.1656H242.412V50.1389H239.315Z" fill="#373F5A"></path><path d="M251.946 50.3881C250.632 50.3881 249.508 50.1052 248.567 49.5338C247.626 48.968 246.904 48.1759 246.399 47.1745C245.894 46.1674 245.642 45.0132 245.642 43.7006C245.642 42.388 245.9 41.2168 246.41 40.2097C246.927 39.197 247.649 38.4105 248.59 37.8448C249.531 37.279 250.643 36.9961 251.928 36.9961C252.995 36.9961 253.942 37.1885 254.768 37.5732C255.594 37.9579 256.247 38.5011 256.741 39.2026C257.234 39.9042 257.509 40.7246 257.578 41.6581H254.613C254.492 41.0358 254.211 40.5096 253.758 40.0909C253.305 39.6722 252.714 39.4629 251.963 39.4629C251.332 39.4629 250.77 39.6326 250.294 39.9664C249.817 40.3003 249.439 40.7812 249.175 41.4092C248.911 42.0315 248.779 42.784 248.779 43.6553C248.779 44.5266 248.911 45.2961 249.175 45.9298C249.439 46.5634 249.806 47.05 250.282 47.3895C250.758 47.729 251.32 47.8987 251.963 47.8987C252.422 47.8987 252.829 47.8138 253.19 47.6384C253.552 47.463 253.856 47.2197 254.102 46.8916C254.349 46.5634 254.515 46.1674 254.607 45.6978H257.572C257.498 46.6144 257.223 47.4291 256.752 48.1363C256.282 48.8435 255.634 49.3923 254.813 49.7941C253.999 50.1901 253.035 50.3881 251.934 50.3881H251.946Z" fill="#373F5A"></path><path d="M264.519 50.3996C263.687 50.3996 262.936 50.2525 262.27 49.9583C261.605 49.6641 261.077 49.2228 260.693 48.6457C260.309 48.063 260.114 47.3501 260.114 46.5014C260.114 45.7716 260.251 45.1662 260.527 44.6853C260.802 44.2043 261.175 43.8253 261.651 43.5367C262.127 43.2482 262.66 43.0332 263.257 42.8804C263.853 42.7277 264.473 42.6202 265.11 42.5579C265.878 42.4787 266.503 42.4052 266.985 42.3429C267.467 42.275 267.817 42.1788 268.035 42.0374C268.253 41.9016 268.362 41.6866 268.362 41.3924V41.3415C268.362 40.7078 268.173 40.2099 267.788 39.8648C267.404 39.5197 266.853 39.3386 266.136 39.3386C265.379 39.3386 264.777 39.5027 264.335 39.8309C263.894 40.159 263.595 40.5437 263.44 40.9907L260.544 40.5833C260.773 39.7969 261.152 39.1349 261.674 38.6031C262.201 38.0713 262.844 37.6696 263.601 37.4037C264.358 37.1377 265.201 37.002 266.119 37.002C266.756 37.002 267.387 37.0755 268.012 37.2226C268.637 37.3697 269.216 37.6073 269.733 37.9468C270.255 38.2806 270.673 38.7389 270.989 39.3103C271.304 39.8874 271.465 40.6003 271.465 41.466V50.1507H268.482V48.3685H268.379C268.19 48.7306 267.926 49.0644 267.587 49.3756C267.249 49.6867 266.825 49.9414 266.308 50.1281C265.798 50.3148 265.201 50.4109 264.513 50.4109L264.519 50.3996ZM265.322 48.1535C265.941 48.1535 266.486 48.029 266.939 47.7857C267.398 47.5424 267.748 47.2143 267.995 46.8126C268.241 46.4052 268.368 45.9639 268.368 45.4887V43.9611C268.27 44.0403 268.104 44.1138 267.874 44.1817C267.645 44.2496 267.387 44.3062 267.1 44.3571C266.813 44.408 266.532 44.4533 266.251 44.4929C265.97 44.5325 265.729 44.5664 265.523 44.5947C265.058 44.657 264.645 44.7588 264.278 44.9002C263.911 45.0417 263.624 45.2341 263.412 45.4887C263.199 45.7376 263.096 46.0601 263.096 46.4561C263.096 47.0219 263.303 47.4463 263.721 47.7291C264.14 48.0177 264.668 48.1591 265.316 48.1591L265.322 48.1535Z" fill="#373F5A"></path><path d="M278.297 32.8379V50.1395H275.199V32.8379H278.297Z" fill="#373F5A"></path><path d="M97.9412 60.7248V58.0996H111.937V60.7248H106.516V75.3955H103.367V60.7248H97.9469H97.9412Z" fill="#373F5A"></path><path d="M112.757 75.3954V62.4221H115.763V64.5833H115.9C116.141 63.8365 116.554 63.2538 117.139 62.8464C117.725 62.439 118.396 62.2354 119.147 62.2354C119.319 62.2354 119.508 62.241 119.726 62.258C119.939 62.275 120.116 62.2919 120.26 62.3202V65.1321C120.128 65.0869 119.921 65.0473 119.64 65.0077C119.359 64.9737 119.084 64.9511 118.82 64.9511C118.252 64.9511 117.747 65.0699 117.3 65.3075C116.853 65.5452 116.497 65.879 116.245 66.2977C115.987 66.722 115.86 67.2086 115.86 67.7574V75.3841H112.757V75.3954Z" fill="#373F5A"></path><path d="M125.497 75.6565C124.665 75.6565 123.914 75.5094 123.248 75.2152C122.583 74.921 122.055 74.4796 121.671 73.9025C121.286 73.3255 121.091 72.6069 121.091 71.7582C121.091 71.0284 121.229 70.423 121.504 69.9421C121.78 69.4612 122.153 69.0821 122.629 68.7936C123.105 68.505 123.638 68.29 124.235 68.1372C124.831 67.9901 125.451 67.877 126.087 67.8148C126.856 67.7355 127.481 67.662 127.963 67.5998C128.445 67.5375 128.795 67.4357 129.013 67.2942C129.231 67.1584 129.34 66.9435 129.34 66.6492V66.5983C129.34 65.9647 129.15 65.4668 128.766 65.1216C128.382 64.7709 127.831 64.5955 127.114 64.5955C126.357 64.5955 125.755 64.7595 125.313 65.0877C124.871 65.4158 124.573 65.8006 124.418 66.2475L121.522 65.8402C121.751 65.0537 122.124 64.3918 122.652 63.8599C123.179 63.3281 123.822 62.9264 124.579 62.6605C125.336 62.3946 126.179 62.2588 127.097 62.2588C127.728 62.2588 128.359 62.3323 128.99 62.4794C129.615 62.6265 130.194 62.8642 130.711 63.2036C131.233 63.5375 131.646 63.9957 131.967 64.5672C132.282 65.1443 132.443 65.8628 132.443 66.7228V75.4075H129.46V73.6253H129.357C129.168 73.9874 128.904 74.3212 128.565 74.6324C128.227 74.9436 127.802 75.1982 127.292 75.3849C126.781 75.5716 126.185 75.6678 125.497 75.6678V75.6565ZM126.3 73.4103C126.919 73.4103 127.464 73.2859 127.917 73.0426C128.37 72.7993 128.726 72.4711 128.973 72.0694C129.219 71.6677 129.345 71.2208 129.345 70.7455V69.2179C129.248 69.2971 129.082 69.3707 128.852 69.4385C128.623 69.5064 128.365 69.563 128.078 69.6139C127.791 69.6649 127.51 69.7101 127.229 69.7497C126.948 69.7893 126.707 69.8233 126.5 69.8516C126.036 69.9138 125.623 70.0156 125.256 70.1571C124.889 70.2985 124.602 70.4909 124.39 70.7455C124.177 70.9944 124.074 71.3169 124.074 71.713C124.074 72.2788 124.281 72.7031 124.699 72.986C125.118 73.2745 125.646 73.416 126.294 73.416L126.3 73.4103Z" fill="#373F5A"></path><path d="M138.311 67.7921V75.3962H135.208V62.4229H138.173V64.6294H138.328C138.632 63.9052 139.114 63.3281 139.779 62.8981C140.445 62.4681 141.271 62.2588 142.251 62.2588C143.158 62.2588 143.949 62.4512 144.626 62.8359C145.303 63.2206 145.825 63.7751 146.203 64.4993C146.582 65.2235 146.76 66.1061 146.754 67.1415V75.4019H143.657V67.6111C143.657 66.7454 143.427 66.0665 142.974 65.5743C142.521 65.082 141.896 64.8387 141.093 64.8387C140.548 64.8387 140.072 64.9576 139.647 65.1895C139.229 65.4215 138.902 65.761 138.661 66.1966C138.42 66.6323 138.305 67.1698 138.305 67.7921H138.311Z" fill="#373F5A"></path><path d="M159.947 65.8515L157.119 66.157C157.039 65.8741 156.901 65.6082 156.706 65.3649C156.511 65.116 156.247 64.918 155.914 64.7652C155.582 64.6124 155.18 64.5389 154.698 64.5389C154.056 64.5389 153.511 64.6747 153.075 64.9519C152.639 65.2291 152.421 65.5856 152.427 66.0269C152.427 66.406 152.565 66.7115 152.851 66.9491C153.138 67.1867 153.62 67.3791 154.285 67.5319L156.528 68.0071C157.773 68.273 158.702 68.6917 159.304 69.2631C159.912 69.8402 160.222 70.5871 160.228 71.5206C160.228 72.3353 159.981 73.0539 159.505 73.6762C159.029 74.2986 158.369 74.7852 157.52 75.136C156.677 75.4867 155.702 75.6621 154.607 75.6621C152.995 75.6621 151.698 75.3283 150.718 74.6607C149.737 73.9931 149.152 73.0652 148.962 71.8714L151.985 71.5828C152.123 72.1713 152.415 72.6126 152.857 72.9068C153.304 73.2066 153.884 73.3537 154.595 73.3537C155.306 73.3537 155.926 73.2066 156.373 72.9068C156.821 72.6069 157.044 72.2392 157.044 71.7978C157.044 71.4244 156.901 71.1189 156.614 70.8756C156.327 70.6323 155.88 70.4456 155.272 70.3155L153.029 69.8516C151.767 69.5913 150.832 69.1557 150.23 68.539C149.622 67.9223 149.324 67.1415 149.329 66.1966C149.324 65.3989 149.547 64.703 149.995 64.1145C150.442 63.5261 151.067 63.0679 151.871 62.7454C152.674 62.4229 153.597 62.2588 154.647 62.2588C156.19 62.2588 157.4 62.5813 158.289 63.2319C159.178 63.8826 159.729 64.7539 159.935 65.8572L159.947 65.8515Z" fill="#373F5A"></path><path d="M169.09 62.4224V64.7874H161.312V62.4224H169.09ZM163.256 75.3958V61.1947C163.256 60.3234 163.44 59.5935 163.807 59.0164C164.174 58.4337 164.667 58.0037 165.293 57.7152C165.912 57.4266 166.606 57.2852 167.363 57.2852C167.902 57.2852 168.379 57.3248 168.792 57.4096C169.205 57.4945 169.514 57.568 169.715 57.6359L169.096 60.0009C168.964 59.9613 168.797 59.9217 168.597 59.8764C168.396 59.8312 168.172 59.8142 167.931 59.8142C167.352 59.8142 166.95 59.95 166.709 60.2216C166.469 60.4931 166.354 60.8835 166.354 61.3927V75.3901H163.245L163.256 75.3958Z" fill="#373F5A"></path><path d="M176.403 75.6504C175.118 75.6504 174.006 75.3732 173.065 74.8131C172.124 74.2529 171.396 73.4778 170.874 72.4707C170.357 71.4693 170.099 70.2981 170.099 68.9572C170.099 67.6163 170.357 66.4452 170.874 65.4324C171.39 64.4253 172.118 63.6389 173.065 63.0844C174.006 62.5243 175.118 62.2471 176.403 62.2471C177.688 62.2471 178.801 62.5243 179.741 63.0844C180.682 63.6446 181.411 64.4253 181.927 65.4324C182.443 66.4395 182.701 67.6163 182.701 68.9572C182.701 70.2981 182.443 71.4693 181.927 72.4707C181.411 73.4722 180.682 74.2529 179.741 74.8131C178.801 75.3732 177.688 75.6504 176.403 75.6504ZM176.42 73.2006C177.114 73.2006 177.699 73.0082 178.17 72.6291C178.64 72.2501 178.99 71.7352 179.22 71.0959C179.449 70.4565 179.564 69.738 179.564 68.9516C179.564 68.1651 179.449 67.4353 179.22 66.7903C178.99 66.1453 178.64 65.6304 178.17 65.2514C177.699 64.8666 177.12 64.6743 176.42 64.6743C175.721 64.6743 175.113 64.8666 174.642 65.2514C174.172 65.6361 173.822 66.1453 173.587 66.7903C173.352 67.4353 173.243 68.1538 173.243 68.9516C173.243 69.7493 173.357 70.4565 173.587 71.0959C173.816 71.7352 174.172 72.2501 174.642 72.6291C175.113 73.0082 175.703 73.2006 176.42 73.2006Z" fill="#373F5A"></path><path d="M184.967 75.3954V62.4221H187.973V64.5833H188.11C188.351 63.8365 188.764 63.2538 189.349 62.8464C189.934 62.439 190.605 62.2354 191.357 62.2354C191.529 62.2354 191.718 62.241 191.936 62.258C192.148 62.275 192.326 62.2919 192.47 62.3202V65.1321C192.338 65.0869 192.131 65.0473 191.85 65.0077C191.569 64.9737 191.294 64.9511 191.03 64.9511C190.462 64.9511 189.957 65.0699 189.51 65.3075C189.062 65.5452 188.707 65.879 188.454 66.2977C188.196 66.722 188.07 67.2086 188.07 67.7574V75.3841H184.973L184.967 75.3954Z" fill="#373F5A"></path><path d="M194.167 75.3962V62.4229H197.133V64.6294H197.288C197.563 63.8882 198.016 63.3055 198.647 62.8868C199.278 62.4681 200.035 62.2588 200.919 62.2588C201.802 62.2588 202.559 62.4738 203.173 62.8981C203.787 63.3225 204.217 63.8996 204.469 64.6351H204.607C204.899 63.9165 205.393 63.3394 206.087 62.9094C206.781 62.4794 207.607 62.2644 208.559 62.2644C209.769 62.2644 210.756 62.6435 211.524 63.396C212.293 64.1485 212.672 65.2518 212.672 66.7002V75.4075H209.563V67.1698C209.563 66.3664 209.345 65.7723 208.914 65.3989C208.479 65.0255 207.951 64.8387 207.32 64.8387C206.574 64.8387 205.989 65.0707 205.57 65.529C205.152 65.9873 204.939 66.5814 204.939 67.3169V75.4075H201.899V67.0453C201.899 66.3777 201.693 65.8402 201.286 65.4385C200.878 65.0368 200.345 64.8387 199.691 64.8387C199.244 64.8387 198.842 64.9519 198.475 65.1726C198.108 65.3932 197.821 65.71 197.603 66.1118C197.385 66.5135 197.276 66.9831 197.276 67.5205V75.4132H194.179L194.167 75.3962Z" fill="#373F5A"></path><path d="M219.245 75.6565C218.413 75.6565 217.662 75.5094 216.996 75.2152C216.331 74.921 215.803 74.4796 215.419 73.9025C215.035 73.3255 214.84 72.6069 214.84 71.7582C214.84 71.0284 214.977 70.423 215.253 69.9421C215.528 69.4612 215.901 69.0821 216.377 68.7936C216.853 68.505 217.386 68.29 217.983 68.1372C218.58 67.9845 219.199 67.877 219.836 67.8148C220.604 67.7355 221.23 67.662 221.711 67.5998C222.193 67.5375 222.543 67.4357 222.761 67.2942C222.979 67.1584 223.088 66.9435 223.088 66.6492V66.5983C223.088 65.9647 222.899 65.4668 222.514 65.1216C222.13 64.7709 221.579 64.5955 220.862 64.5955C220.105 64.5955 219.503 64.7595 219.061 65.0877C218.62 65.4158 218.321 65.8006 218.167 66.2475L215.27 65.8402C215.499 65.0537 215.878 64.3918 216.4 63.8599C216.928 63.3281 217.57 62.9264 218.327 62.6605C219.084 62.3946 219.928 62.2588 220.845 62.2588C221.482 62.2588 222.113 62.3323 222.738 62.4794C223.363 62.6265 223.943 62.8642 224.459 63.2036C224.981 63.5375 225.4 63.9957 225.715 64.5672C226.031 65.1443 226.191 65.8628 226.191 66.7228V75.4075H223.208V73.6253H223.105C222.916 73.9874 222.652 74.3212 222.314 74.6324C221.975 74.9436 221.551 75.1982 221.035 75.3849C220.524 75.5716 219.928 75.6678 219.239 75.6678L219.245 75.6565ZM220.048 73.4103C220.667 73.4103 221.212 73.2859 221.666 73.0426C222.124 72.7993 222.474 72.4711 222.721 72.0694C222.968 71.6621 223.094 71.2208 223.094 70.7455V69.2179C222.996 69.2971 222.83 69.3707 222.6 69.4385C222.371 69.5064 222.113 69.563 221.826 69.6139C221.539 69.6649 221.258 69.7101 220.977 69.7497C220.696 69.7893 220.455 69.8233 220.249 69.8516C219.784 69.9138 219.371 70.0156 219.004 70.1571C218.637 70.2985 218.35 70.4909 218.138 70.7455C217.926 70.9944 217.822 71.3169 217.822 71.713C217.822 72.2788 218.029 72.7031 218.448 72.986C218.866 73.2745 219.394 73.416 220.042 73.416L220.048 73.4103Z" fill="#373F5A"></path><path d="M235.524 62.4225V64.7875H227.964V62.4225H235.524ZM229.828 59.3164H232.931V71.4977C232.931 71.9107 232.994 72.2219 233.126 72.4369C233.252 72.6519 233.424 72.799 233.636 72.8782C233.849 72.9574 234.084 72.997 234.336 72.997C234.531 72.997 234.709 72.9857 234.87 72.9574C235.03 72.9291 235.156 72.9065 235.243 72.8838L235.765 75.2771C235.598 75.3337 235.363 75.3959 235.059 75.4638C234.755 75.5317 234.382 75.5713 233.94 75.5826C233.166 75.6052 232.466 75.4864 231.841 75.2318C231.222 74.9772 230.728 74.5755 230.361 74.038C230 73.4949 229.822 72.8216 229.828 72.0125V59.3221V59.3164Z" fill="#373F5A"></path><path d="M239.315 60.578C238.822 60.578 238.403 60.4139 238.047 60.0914C237.692 59.7689 237.514 59.3785 237.514 58.9202C237.514 58.4619 237.692 58.0659 238.047 57.7434C238.403 57.4209 238.822 57.2568 239.315 57.2568C239.808 57.2568 240.238 57.4209 240.588 57.7434C240.938 58.0659 241.116 58.4619 241.116 58.9202C241.116 59.3785 240.938 59.7689 240.588 60.0914C240.238 60.4139 239.814 60.578 239.315 60.578ZM237.755 75.3958V62.4224H240.852V75.3958H237.755Z" fill="#373F5A"></path><path d="M249.416 75.6504C248.131 75.6504 247.018 75.3732 246.078 74.8131C245.137 74.2529 244.409 73.4778 243.887 72.4707C243.37 71.4693 243.112 70.2981 243.112 68.9572C243.112 67.6163 243.37 66.4452 243.887 65.4324C244.403 64.4253 245.131 63.6389 246.078 63.0844C247.018 62.5243 248.131 62.2471 249.416 62.2471C250.701 62.2471 251.814 62.5243 252.754 63.0844C253.695 63.6446 254.423 64.4253 254.94 65.4324C255.456 66.4395 255.714 67.6163 255.714 68.9572C255.714 70.2981 255.456 71.4693 254.94 72.4707C254.423 73.4722 253.695 74.2529 252.754 74.8131C251.814 75.3732 250.701 75.6504 249.416 75.6504ZM249.433 73.2006C250.127 73.2006 250.712 73.0082 251.183 72.6291C251.653 72.2501 252.003 71.7352 252.232 71.0959C252.462 70.4565 252.576 69.738 252.576 68.9516C252.576 68.1651 252.462 67.4353 252.232 66.7903C252.003 66.1453 251.653 65.6304 251.183 65.2514C250.712 64.8666 250.133 64.6743 249.433 64.6743C248.733 64.6743 248.125 64.8666 247.655 65.2514C247.185 65.6361 246.835 66.1453 246.6 66.7903C246.364 67.4353 246.255 68.1538 246.255 68.9516C246.255 69.7493 246.37 70.4565 246.6 71.0959C246.829 71.7352 247.185 72.2501 247.655 72.6291C248.125 73.0082 248.716 73.2006 249.433 73.2006Z" fill="#373F5A"></path><path d="M261.077 67.7921V75.3962H257.98V62.4229H260.945V64.6294H261.1C261.404 63.9052 261.886 63.3281 262.551 62.8981C263.217 62.4681 264.043 62.2588 265.023 62.2588C265.93 62.2588 266.721 62.4512 267.398 62.8359C268.075 63.2206 268.597 63.7751 268.976 64.4993C269.354 65.2235 269.532 66.1061 269.526 67.1415V75.4019H266.429V67.6111C266.429 66.7454 266.199 66.0665 265.746 65.5743C265.293 65.082 264.668 64.8387 263.865 64.8387C263.32 64.8387 262.844 64.9576 262.419 65.1895C262.001 65.4215 261.674 65.761 261.433 66.1966C261.192 66.6323 261.077 67.1698 261.077 67.7921Z" fill="#373F5A"></path><path d="M282.719 65.8515L279.891 66.157C279.811 65.8741 279.673 65.6082 279.478 65.3649C279.283 65.116 279.019 64.918 278.687 64.7652C278.354 64.6124 277.952 64.5389 277.471 64.5389C276.828 64.5389 276.283 64.6747 275.847 64.9519C275.411 65.2291 275.193 65.5856 275.199 66.0269C275.199 66.406 275.337 66.7115 275.624 66.9491C275.91 67.1867 276.392 67.3791 277.058 67.5319L279.3 68.0071C280.545 68.273 281.474 68.6917 282.077 69.2631C282.685 69.8402 282.994 70.5871 283 71.5206C283 72.3353 282.753 73.0539 282.277 73.6762C281.801 74.2986 281.142 74.7852 280.293 75.136C279.449 75.4867 278.474 75.6621 277.379 75.6621C275.767 75.6621 274.471 75.3283 273.49 74.6607C272.509 73.9931 271.924 73.0652 271.735 71.8714L274.757 71.5828C274.895 72.1713 275.188 72.6126 275.629 72.9068C276.077 73.2066 276.656 73.3537 277.367 73.3537C278.079 73.3537 278.698 73.2066 279.145 72.9068C279.593 72.6069 279.817 72.2392 279.817 71.7978C279.817 71.4244 279.673 71.1189 279.386 70.8756C279.1 70.6323 278.652 70.4456 278.044 70.3155L275.801 69.8516C274.539 69.5913 273.605 69.1557 273.002 68.539C272.394 67.9223 272.096 67.1415 272.102 66.1966C272.096 65.3989 272.32 64.703 272.767 64.1145C273.215 63.5261 273.84 63.0679 274.643 62.7454C275.446 62.4229 276.369 62.2588 277.419 62.2588C278.962 62.2588 280.172 62.5813 281.061 63.2319C281.95 63.8826 282.501 64.7539 282.707 65.8572L282.719 65.8515Z" fill="#373F5A"></path></g><defs><clipPath id="clip0_1019_80"><rect width="84" height="84" fill="white"></rect></clipPath></defs></svg>